<?xml version="1.0" standalone="no"?>
<!DOCTYPE svg PUBLIC "-//W3C//DTD SVG 20010904//EN"
 "http://www.w3.org/TR/2001/REC-SVG-20010904/DTD/svg10.dtd">
<svg version="1.0" xmlns="http://www.w3.org/2000/svg"
 width="500.000000pt" height="500.000000pt" viewBox="0 0 500.000000 500.000000"
 preserveAspectRatio="xMidYMid meet">

<g transform="translate(0.000000,500.000000) scale(0.100000,-0.100000)"
fill="#000000" stroke="none">
<path d="M1545 4186 l-980 -571 0 -1150 0 -1149 975 -568 c536 -313 983 -567
992 -566 9 2 454 257 987 568 l971 565 0 1150 0 1150 -927 540 c-510 297 -952
554 -982 571 l-56 32 -980 -572z m909 -858 c8 -13 152 -295 320 -628 l306
-605 0 603 0 602 -65 0 c-63 0 -65 1 -65 25 l0 25 163 -2 c156 -3 162 -4 165
-24 3 -18 -4 -22 -35 -27 -21 -4 -50 -7 -65 -7 l-28 0 0 -850 0 -850 -172 0
-173 0 -360 703 c-198 386 -382 748 -410 804 -27 56 -53 102 -57 102 -5 1 -8
-350 -8 -779 l0 -780 70 0 c68 0 70 -1 70 -25 l0 -25 -165 0 -165 0 0 25 c0
24 2 25 65 25 l65 0 0 830 0 830 -65 0 c-63 0 -65 1 -65 25 l0 25 330 0 330 0
14 -22z"/>
</g>
</svg>
