<?xml version="1.0" encoding="utf-8"?>
<!-- Generator: Adobe Illustrator 24.0.2, SVG Export Plug-In . SVG Version: 6.00 Build 0)  -->
<svg version="1.1" id="Capa_1" xmlns="http://www.w3.org/2000/svg" xmlns:xlink="http://www.w3.org/1999/xlink" x="0px" y="0px"
	 viewBox="0 0 500 500" style="enable-background:new 0 0 500 500;" xml:space="preserve">
<style type="text/css">
	.st0{fill:#44B6BC;stroke:#000000;stroke-miterlimit:10;}
	.st1{fill:#0C121F;stroke:#000000;stroke-miterlimit:10;}
</style>
<g>
	<rect x="131.8" y="117.3" class="st0" width="249.2" height="260.2"/>
	<g transform="translate(0.000000,500.000000) scale(0.100000,-0.100000)">
		<path class="st1" d="M1513.7,4318.7L502.5,3703.6v-1239V1226.7l1006.1-611.9C2061.6,277.6,2522.9,3.9,2532.1,5
			c9.3,2.2,468.5,276.9,1018.4,611.9l1001.9,608.7v1239v1239L3596,4285.4c-526.2,320-982.3,596.9-1013.3,615.2l-57.8,34.5
			L1513.7,4318.7z M2451.7,3394.4c8.3-14,156.8-317.8,330.2-676.6l315.7-651.8v649.6v648.6h-67.1c-65,0-67.1,1.1-67.1,26.9v26.9
			l168.2-2.2c161-3.2,167.2-4.3,170.3-25.9c3.1-19.4-4.1-23.7-36.1-29.1c-21.7-4.3-51.6-7.5-67.1-7.5h-28.9v-915.8v-915.8h-177.5
			h-178.5l-371.5,757.4c-204.3,415.9-394.2,805.9-423.1,866.2c-27.9,60.3-54.7,109.9-58.8,109.9c-5.2,1.1-8.3-377.1-8.3-839.3
			v-840.3h72.2c70.2,0,72.2-1.1,72.2-26.9v-26.9h-170.3h-170.3v26.9c0,25.9,2.1,26.9,67.1,26.9h67.1V2470v894.2h-67.1
			c-65,0-67.1,1.1-67.1,26.9v26.9h340.5h340.5L2451.7,3394.4z"/>
	</g>
</g>
</svg>
